<svg width="3493" height="539" viewBox="0 0 3493 539" fill="none" xmlns="http://www.w3.org/2000/svg">
<path fill-rule="evenodd" clip-rule="evenodd" d="M1618.7 517.178C1756.25 517.178 1866.26 408.01 1866.26 269.658C1866.26 131.306 1756.25 24.4789 1618.7 24.4789C1481.15 24.4789 1372.05 131.306 1372.05 269.658C1372.05 408.01 1481.15 517.178 1618.7 517.178ZM1618.7 538.655C1767.35 538.655 1887.86 418.221 1887.86 269.658C1887.86 121.095 1767.35 0.661133 1618.7 0.661133C1470.05 0.661133 1349.54 121.095 1349.54 269.658C1349.54 418.221 1470.05 538.655 1618.7 538.655Z" fill="url(#paint0_linear_546_375)"/>
<path d="M1851.8 265.849C1854.9 262.06 1851.68 256.627 1846.62 257.112L1776.1 263.877L1706.71 263.877C1706.02 263.877 1705.36 264.108 1704.83 264.527L1704.2 265.034C1694.71 272.622 1682.87 277.137 1670.44 277.91L1659.54 278.589C1659.37 278.599 1659.21 278.679 1659.11 278.806L1620.7 327.084C1620.42 327.444 1620.69 327.955 1621.16 327.955L1779.61 327.953C1781.25 327.953 1782.86 327.514 1784.26 326.687L1818.81 306.148L1851.8 265.849Z" fill="url(#paint1_linear_546_375)"/>
<path fill-rule="evenodd" clip-rule="evenodd" d="M1776.22 266.107L1846.86 259.331C1849.85 259.045 1851.75 262.253 1849.92 264.49L1817.19 304.475L1782.99 324.802C1781.98 325.403 1780.81 325.722 1779.61 325.722L1624.75 325.724L1660.52 280.763L1670.6 280.136C1683.53 279.332 1695.86 274.632 1705.74 266.733L1706.37 266.225C1706.47 266.15 1706.59 266.108 1706.71 266.108L1776.22 266.107ZM1620.7 327.084C1620.42 327.444 1620.69 327.955 1621.16 327.955L1779.61 327.953C1781.25 327.953 1782.86 327.514 1784.26 326.687L1818.81 306.148L1851.8 265.849C1854.9 262.06 1851.68 256.627 1846.62 257.112L1776.1 263.877L1706.71 263.877C1706.02 263.877 1705.36 264.108 1704.83 264.527L1704.2 265.034C1694.71 272.622 1682.87 277.137 1670.44 277.91L1659.54 278.589C1659.37 278.599 1659.21 278.679 1659.11 278.806L1620.7 327.084Z" fill="#4E765E"/>
<path d="M1393.09 258.188C1389.56 254.449 1392.71 248.634 1397.97 249.18L1503.83 260.168L1580.66 259.167C1581.32 259.158 1581.98 259.367 1582.51 259.758L1588.03 263.849C1598.59 271.673 1611.66 275.853 1625.02 275.679L1630.63 275.606C1631.11 275.599 1631.4 276.122 1631.11 276.483L1607.45 305.825L1589.62 327.713C1589.51 327.845 1589.34 327.923 1589.16 327.923L1493.61 327.923C1492.61 327.923 1491.61 327.759 1490.66 327.439L1457.54 316.26C1448.28 313.133 1439.98 307.853 1433.43 300.916L1393.09 258.188Z" fill="url(#paint2_linear_546_375)"/>
<path fill-rule="evenodd" clip-rule="evenodd" d="M1503.83 260.168L1397.97 249.18C1392.71 248.634 1389.56 254.449 1393.09 258.188L1433.43 300.916C1439.98 307.853 1448.28 313.133 1457.54 316.26L1490.66 327.439C1491.61 327.759 1492.61 327.923 1493.61 327.923L1589.16 327.923C1589.34 327.923 1589.51 327.845 1589.62 327.713L1607.45 305.825L1631.11 276.483C1631.4 276.122 1631.11 275.599 1630.63 275.606L1625.02 275.679C1611.66 275.853 1598.59 271.673 1588.03 263.849L1582.51 259.758C1581.98 259.367 1581.32 259.158 1580.66 259.167L1503.83 260.168ZM1626.98 277.886L1625.08 277.91C1611.17 278.092 1597.56 273.741 1586.57 265.596L1581.05 261.505C1580.96 261.435 1580.84 261.397 1580.72 261.398L1503.74 262.401L1397.74 251.398C1394.63 251.076 1392.77 254.51 1394.85 256.717L1435.2 299.445C1441.48 306.098 1449.44 311.161 1458.32 314.161L1491.44 325.339C1492.13 325.572 1492.85 325.691 1493.58 325.691L1588.26 325.691L1605.55 304.463L1626.98 277.886Z" fill="#4E765E"/>
<path fill-rule="evenodd" clip-rule="evenodd" d="M1570.59 377.917L1721.7 187.346L1715.35 181.803L1564.24 372.374L1570.59 377.917Z" fill="#326E4A"/>
<g filter="url(#filter0_i_546_375)">
<path d="M1572.15 398.407C1572.39 397.985 1572.52 397.501 1572.52 397.004L1572.52 378.775C1572.52 377.765 1572 376.813 1571.15 376.275L1565.09 372.441C1564.49 372.066 1563.79 371.926 1563.12 372.051L1545.49 375.318C1544.96 375.416 1544.47 375.674 1544.09 376.06L1508.17 412.457C1499.31 421.431 1501.34 436.863 1512.28 443.738L1516.5 446.389L1523.62 450.915C1529.93 454.924 1538.02 453.291 1542.09 447.189L1557.58 423.978L1572.15 398.407Z" fill="#EFCB0B"/>
</g>
<g filter="url(#filter1_i_546_375)">
<path fill-rule="evenodd" clip-rule="evenodd" d="M1517.64 444.413L1513.42 441.762C1503.76 435.692 1501.97 422.065 1509.79 414.141L1545.71 377.744C1545.78 377.674 1545.87 377.628 1545.96 377.61L1563.59 374.343C1563.71 374.32 1563.84 374.346 1563.95 374.414L1570.01 378.247C1570.16 378.345 1570.25 378.517 1570.25 378.7L1570.25 396.929C1570.25 397.019 1570.23 397.106 1570.19 397.183L1555.66 422.685L1540.21 445.83C1536.81 450.932 1530.04 452.297 1524.77 448.946L1517.64 444.413ZM1557.58 423.978L1572.15 398.407C1572.39 397.985 1572.52 397.501 1572.52 397.004L1572.52 378.775C1572.52 377.765 1572 376.813 1571.15 376.275L1565.09 372.441C1564.49 372.066 1563.79 371.926 1563.12 372.051L1545.49 375.318C1544.96 375.416 1544.47 375.674 1544.09 376.06L1508.17 412.457C1499.31 421.431 1501.34 436.863 1512.28 443.738L1516.5 446.389L1523.62 450.915C1529.93 454.924 1538.02 453.291 1542.09 447.189L1557.58 423.978Z" fill="#9C850B"/>
</g>
<g filter="url(#filter2_i_546_375)">
<path d="M1731.51 198.293C1731.11 198.712 1730.59 198.986 1730.03 199.077L1712.35 201.946C1711.47 202.089 1710.58 201.771 1709.96 201.093L1704.85 195.533C1704.52 195.179 1704.29 194.745 1704.17 194.271L1701.61 184.296C1701.41 183.534 1701.52 182.725 1701.91 182.057L1728.05 137.132C1734.17 126.621 1747.82 124.447 1756.78 132.557L1759.3 134.835L1765.8 140.594C1771.98 146.066 1772.4 155.902 1766.7 161.813L1731.51 198.293Z" fill="#EFCB0B"/>
</g>
<g filter="url(#filter3_i_546_375)">
<path fill-rule="evenodd" clip-rule="evenodd" d="M1757.85 136.611L1755.33 134.334C1747.42 127.172 1735.36 129.092 1729.96 138.373L1703.82 183.298C1703.75 183.419 1703.73 183.565 1703.77 183.703L1706.33 193.678C1706.35 193.764 1706.39 193.843 1706.45 193.907L1711.56 199.467C1711.67 199.59 1711.83 199.647 1711.99 199.621L1729.67 196.753C1729.77 196.736 1729.86 196.687 1729.94 196.611L1765.12 160.131C1769.89 155.188 1769.54 146.964 1764.37 142.388L1757.85 136.611ZM1759.3 134.835L1756.78 132.557C1747.82 124.447 1734.17 126.621 1728.05 137.132L1701.91 182.057C1701.52 182.725 1701.41 183.534 1701.61 184.296L1704.17 194.271C1704.29 194.745 1704.52 195.179 1704.85 195.533L1709.96 201.093C1710.58 201.771 1711.47 202.089 1712.35 201.946L1730.03 199.077C1730.59 198.986 1731.11 198.712 1731.51 198.293L1766.7 161.813C1772.4 155.902 1771.98 146.066 1765.8 140.594L1759.3 134.835Z" fill="#9C850B"/>
</g>
<path d="M1704.47 195.539L1737.83 157.701C1738.03 157.612 -nan -nan -nan -nanL1738.19 157.54C-nan -nan -nan -nan -nan -nanC-nan -nan -nan -nan 1741.92 160.545C-nan -nan -nan -nan 1741.92 160.545L-nan -nanL1741.92 160.545C1731.31 176.612 1710.3 201.689 1710.3 201.689L1704.47 195.539Z" fill="#326E4A"/>
<path d="M1564.72 371.822L1532.68 415.438C1532.63 415.636 -nan -nan -nan -nanL1532.59 415.797C-nan -nan -nan -nan -nan -nanC-nan -nan -nan -nan 1536.84 418.469C-nan -nan -nan -nan 1536.84 418.469L-nan -nanL1536.84 418.469C1551.11 403.01 1572.57 375.49 1572.57 375.49L1564.72 371.822Z" fill="#326E4A"/>
<path d="M0.563293 395.977V144.306H91.9159C109.493 144.306 124.719 147.661 137.592 154.373C150.713 160.844 160.864 169.952 168.043 181.697C175.223 193.441 178.812 207.104 178.812 222.683C178.812 237.544 175.223 250.846 168.043 262.591C160.864 274.336 150.713 283.564 137.592 290.275C124.719 296.746 109.493 299.982 91.9159 299.982H45.1255V395.977H0.563293ZM45.1255 264.389H84.8602C100.705 264.389 112.835 260.554 121.253 252.884C129.67 245.214 133.879 235.027 133.879 222.324C133.879 209.86 129.67 199.793 121.253 192.123C112.835 184.453 100.705 180.618 84.8602 180.618H45.1255V264.389Z" fill="url(#paint3_linear_546_375)"/>
<path d="M197.606 395.977L279.304 144.306H332.036L413.733 395.977H368.428L349.489 335.216H259.993L241.426 395.977H197.606ZM270.02 301.78H339.834L304.927 189.966L270.02 301.78Z" fill="url(#paint4_linear_546_375)"/>
<path d="M487.858 359.305H515.71C528.831 359.305 540.343 355.709 550.245 348.519C560.148 341.328 567.947 331.141 573.641 317.959C579.335 304.776 582.182 288.837 582.182 270.141C582.182 251.446 579.335 235.506 573.641 222.324C567.947 209.141 560.148 198.954 550.245 191.764C540.343 184.573 528.831 180.978 515.71 180.978H487.858V359.305ZM443.296 395.977V144.306H519.795C540.59 144.306 559.034 149.459 575.126 159.765C591.218 170.072 603.844 184.693 613.004 203.628C622.411 222.324 627.115 244.495 627.115 270.141C627.115 295.548 622.411 317.719 613.004 336.654C603.844 355.589 591.218 370.21 575.126 380.517C559.034 390.823 540.59 395.977 519.795 395.977H443.296Z" fill="url(#paint5_linear_546_375)"/>
<path d="M710.524 359.305H738.376C751.497 359.305 763.009 355.709 772.912 348.519C782.814 341.328 790.613 331.141 796.307 317.959C802.001 304.776 804.848 288.837 804.848 270.141C804.848 251.446 802.001 235.506 796.307 222.324C790.613 209.141 782.814 198.954 772.912 191.764C763.009 184.573 751.497 180.978 738.376 180.978H710.524V359.305ZM665.962 395.977V144.306H742.461C763.256 144.306 781.7 149.459 797.792 159.765C813.884 170.072 826.51 184.693 835.67 203.628C845.078 222.324 849.781 244.495 849.781 270.141C849.781 295.548 845.078 317.719 835.67 336.654C826.51 355.589 813.884 370.21 797.792 380.517C781.7 390.823 763.256 395.977 742.461 395.977H665.962Z" fill="url(#paint6_linear_546_375)"/>
<path d="M895.684 395.977V144.306H940.246V359.305H1066.88V395.977H895.684Z" fill="url(#paint7_linear_546_375)"/>
<path d="M1117.24 395.977V144.306H1287.32V180.978H1161.8V251.086H1243.12V287.039H1161.8V359.305H1288.8V395.977H1117.24Z" fill="url(#paint8_linear_546_375)"/>
<path d="M1948.59 412.806L2031.41 282.297L1954.91 161.135H2003.93L2055.54 244.906L2107.9 161.135H2155.44L2078.57 281.578L2161.75 412.806H2112.36L2054.43 318.969L1996.13 412.806H1948.59Z" fill="url(#paint9_linear_546_375)"/>
<path d="M2195.4 412.806V161.135H2286.75C2304.33 161.135 2319.55 164.491 2332.43 171.202C2345.55 177.673 2355.7 186.781 2362.88 198.526C2370.06 210.271 2373.65 223.933 2373.65 239.513C2373.65 254.373 2370.06 267.676 2362.88 279.42C2355.7 291.165 2345.55 300.393 2332.43 307.104C2319.55 313.576 2304.33 316.812 2286.75 316.812H2239.96V412.806H2195.4ZM2239.96 281.218H2279.69C2295.54 281.218 2307.67 277.383 2316.09 269.713C2324.5 262.043 2328.71 251.856 2328.71 239.153C2328.71 226.689 2324.5 216.622 2316.09 208.952C2307.67 201.283 2295.54 197.448 2279.69 197.448H2239.96V281.218Z" fill="url(#paint10_linear_546_375)"/>
<path d="M2422.52 412.806V161.135H2467.08V376.134H2593.71V412.806H2422.52Z" fill="url(#paint11_linear_546_375)"/>
<path d="M2723.17 416.761C2704.85 416.761 2688.02 411.727 2672.67 401.661C2657.32 391.594 2645.06 376.973 2635.9 357.798C2626.74 338.383 2622.16 314.774 2622.16 286.971C2622.16 259.167 2626.74 235.678 2635.9 216.503C2645.06 197.088 2657.32 182.347 2672.67 172.28C2688.02 162.214 2704.85 157.18 2723.17 157.18C2741.49 157.18 2758.2 162.214 2773.3 172.28C2788.65 182.347 2800.91 197.088 2810.07 216.503C2819.47 235.678 2824.18 259.167 2824.18 286.971C2824.18 314.774 2819.47 338.383 2810.07 357.798C2800.91 376.973 2788.65 391.594 2773.3 401.661C2758.2 411.727 2741.49 416.761 2723.17 416.761ZM2723.17 377.932C2733.57 377.932 2742.98 374.576 2751.39 367.865C2760.06 360.914 2766.87 350.727 2771.82 337.305C2776.77 323.643 2779.24 306.865 2779.24 286.971C2779.24 267.077 2776.77 250.418 2771.82 236.996C2766.87 223.334 2760.06 213.147 2751.39 206.436C2742.98 199.485 2733.57 196.009 2723.17 196.009C2712.77 196.009 2703.24 199.485 2694.58 206.436C2686.16 213.147 2679.47 223.334 2674.52 236.996C2669.57 250.418 2667.1 267.077 2667.1 286.971C2667.1 306.865 2669.57 323.643 2674.52 337.305C2679.47 350.727 2686.16 360.914 2694.58 367.865C2703.24 374.576 2712.77 377.932 2723.17 377.932Z" fill="url(#paint12_linear_546_375)"/>
<path d="M2864.88 412.806V161.135H2953.26C2970.59 161.135 2985.69 164.371 2998.57 170.842C3011.69 177.074 3021.84 185.943 3029.02 197.448C3036.45 208.713 3040.16 221.896 3040.16 236.996C3040.16 253.534 3035.7 267.796 3026.79 279.78C3017.88 291.764 3005.75 300.513 2990.4 306.026L3047.22 412.806H2999.31L2947.69 312.138H2909.44V412.806H2864.88ZM2909.44 277.623H2949.55C2963.41 277.623 2974.43 274.027 2982.6 266.837C2991.02 259.407 2995.23 249.699 2995.23 237.715C2995.23 225.491 2991.02 215.784 2982.6 208.593C2974.43 201.163 2963.41 197.448 2949.55 197.448H2909.44V277.623Z" fill="url(#paint13_linear_546_375)"/>
<path d="M3089.4 412.806V161.135H3259.48V197.807H3133.97V267.915H3215.29V303.868H3133.97V376.134H3260.97V412.806H3089.4Z" fill="url(#paint14_linear_546_375)"/>
<path d="M3310.21 412.806V161.135H3398.6C3415.93 161.135 3431.03 164.371 3443.9 170.842C3457.02 177.074 3467.17 185.943 3474.35 197.448C3481.78 208.713 3485.49 221.896 3485.49 236.996C3485.49 253.534 3481.04 267.796 3472.12 279.78C3463.21 291.764 3451.08 300.513 3435.73 306.026L3492.55 412.806H3444.64L3393.03 312.138H3354.78V412.806H3310.21ZM3354.78 277.623H3394.88C3408.75 277.623 3419.76 274.027 3427.93 266.837C3436.35 259.407 3440.56 249.699 3440.56 237.715C3440.56 225.491 3436.35 215.784 3427.93 208.593C3419.76 201.163 3408.75 197.448 3394.88 197.448H3354.78V277.623Z" fill="url(#paint15_linear_546_375)"/>
<defs>
<filter id="filter0_i_546_375" x="1502.63" y="372.006" width="69.8934" height="82.1006" filterUnits="userSpaceOnUse" color-interpolation-filters="sRGB">
<feFlood flood-opacity="0" result="BackgroundImageFix"/>
<feBlend mode="normal" in="SourceGraphic" in2="BackgroundImageFix" result="shape"/>
<feColorMatrix in="SourceAlpha" type="matrix" values="0 0 0 0 0 0 0 0 0 0 0 0 0 0 0 0 0 0 127 0" result="hardAlpha"/>
<feOffset dy="1"/>
<feGaussianBlur stdDeviation="1.5"/>
<feComposite in2="hardAlpha" operator="arithmetic" k2="-1" k3="1"/>
<feColorMatrix type="matrix" values="0 0 0 0 0.109167 0 0 0 0 0.0917001 0 0 0 0 0 0 0 0 0.25 0"/>
<feBlend mode="normal" in2="shape" result="effect1_innerShadow_546_375"/>
</filter>
<filter id="filter1_i_546_375" x="1502.63" y="372.006" width="69.8934" height="82.1006" filterUnits="userSpaceOnUse" color-interpolation-filters="sRGB">
<feFlood flood-opacity="0" result="BackgroundImageFix"/>
<feBlend mode="normal" in="SourceGraphic" in2="BackgroundImageFix" result="shape"/>
<feColorMatrix in="SourceAlpha" type="matrix" values="0 0 0 0 0 0 0 0 0 0 0 0 0 0 0 0 0 0 127 0" result="hardAlpha"/>
<feOffset dy="1"/>
<feGaussianBlur stdDeviation="1.5"/>
<feComposite in2="hardAlpha" operator="arithmetic" k2="-1" k3="1"/>
<feColorMatrix type="matrix" values="0 0 0 0 0.109167 0 0 0 0 0.0917001 0 0 0 0 0 0 0 0 0.25 0"/>
<feBlend mode="normal" in2="shape" result="effect1_innerShadow_546_375"/>
</filter>
<filter id="filter2_i_546_375" x="1701.52" y="127.634" width="69.2051" height="75.3457" filterUnits="userSpaceOnUse" color-interpolation-filters="sRGB">
<feFlood flood-opacity="0" result="BackgroundImageFix"/>
<feBlend mode="normal" in="SourceGraphic" in2="BackgroundImageFix" result="shape"/>
<feColorMatrix in="SourceAlpha" type="matrix" values="0 0 0 0 0 0 0 0 0 0 0 0 0 0 0 0 0 0 127 0" result="hardAlpha"/>
<feOffset dy="1"/>
<feGaussianBlur stdDeviation="1.5"/>
<feComposite in2="hardAlpha" operator="arithmetic" k2="-1" k3="1"/>
<feColorMatrix type="matrix" values="0 0 0 0 0.459167 0 0 0 0 0.387965 0 0 0 0 0.0141577 0 0 0 0.66 0"/>
<feBlend mode="normal" in2="shape" result="effect1_innerShadow_546_375"/>
</filter>
<filter id="filter3_i_546_375" x="1701.52" y="127.634" width="69.2051" height="75.3457" filterUnits="userSpaceOnUse" color-interpolation-filters="sRGB">
<feFlood flood-opacity="0" result="BackgroundImageFix"/>
<feBlend mode="normal" in="SourceGraphic" in2="BackgroundImageFix" result="shape"/>
<feColorMatrix in="SourceAlpha" type="matrix" values="0 0 0 0 0 0 0 0 0 0 0 0 0 0 0 0 0 0 127 0" result="hardAlpha"/>
<feOffset dy="1"/>
<feGaussianBlur stdDeviation="1.5"/>
<feComposite in2="hardAlpha" operator="arithmetic" k2="-1" k3="1"/>
<feColorMatrix type="matrix" values="0 0 0 0 0.459167 0 0 0 0 0.387965 0 0 0 0 0.0141577 0 0 0 0.66 0"/>
<feBlend mode="normal" in2="shape" result="effect1_innerShadow_546_375"/>
</filter>
<linearGradient id="paint0_linear_546_375" x1="1618.7" y1="0.655986" x2="1618.7" y2="538.65" gradientUnits="userSpaceOnUse">
<stop offset="0.216667" stop-color="#004B1E"/>
<stop offset="0.888542" stop-color="#61AD00"/>
</linearGradient>
<linearGradient id="paint1_linear_546_375" x1="1736.23" y1="258.735" x2="1737.27" y2="328.585" gradientUnits="userSpaceOnUse">
<stop offset="0.1125" stop-color="#006729"/>
<stop offset="1" stop-color="#2BFF80"/>
</linearGradient>
<linearGradient id="paint2_linear_546_375" x1="1511.8" y1="253.811" x2="1508.75" y2="328.548" gradientUnits="userSpaceOnUse">
<stop offset="0.0447915" stop-color="#006026"/>
<stop offset="1" stop-color="#2BFF80"/>
</linearGradient>
<linearGradient id="paint3_linear_546_375" x1="640.031" y1="24.4624" x2="640.031" y2="503.836" gradientUnits="userSpaceOnUse">
<stop offset="0.336458" stop-color="#00752F"/>
<stop offset="0.846775" stop-color="#57AE08"/>
<stop offset="0.846875" stop-color="#61AD00"/>
</linearGradient>
<linearGradient id="paint4_linear_546_375" x1="640.031" y1="24.4624" x2="640.031" y2="503.836" gradientUnits="userSpaceOnUse">
<stop offset="0.336458" stop-color="#00752F"/>
<stop offset="0.846775" stop-color="#57AE08"/>
<stop offset="0.846875" stop-color="#61AD00"/>
</linearGradient>
<linearGradient id="paint5_linear_546_375" x1="640.031" y1="24.4624" x2="640.031" y2="503.836" gradientUnits="userSpaceOnUse">
<stop offset="0.336458" stop-color="#00752F"/>
<stop offset="0.846775" stop-color="#57AE08"/>
<stop offset="0.846875" stop-color="#61AD00"/>
</linearGradient>
<linearGradient id="paint6_linear_546_375" x1="640.031" y1="24.4624" x2="640.031" y2="503.836" gradientUnits="userSpaceOnUse">
<stop offset="0.336458" stop-color="#00752F"/>
<stop offset="0.846775" stop-color="#57AE08"/>
<stop offset="0.846875" stop-color="#61AD00"/>
</linearGradient>
<linearGradient id="paint7_linear_546_375" x1="640.031" y1="24.4624" x2="640.031" y2="503.836" gradientUnits="userSpaceOnUse">
<stop offset="0.336458" stop-color="#00752F"/>
<stop offset="0.846775" stop-color="#57AE08"/>
<stop offset="0.846875" stop-color="#61AD00"/>
</linearGradient>
<linearGradient id="paint8_linear_546_375" x1="640.031" y1="24.4624" x2="640.031" y2="503.836" gradientUnits="userSpaceOnUse">
<stop offset="0.336458" stop-color="#00752F"/>
<stop offset="0.846775" stop-color="#57AE08"/>
<stop offset="0.846875" stop-color="#61AD00"/>
</linearGradient>
<linearGradient id="paint9_linear_546_375" x1="2723.61" y1="41.2917" x2="2723.61" y2="520.665" gradientUnits="userSpaceOnUse">
<stop offset="0.357292" stop-color="#00752F"/>
<stop offset="0.836458" stop-color="#68B900"/>
</linearGradient>
<linearGradient id="paint10_linear_546_375" x1="2723.61" y1="41.2917" x2="2723.61" y2="520.665" gradientUnits="userSpaceOnUse">
<stop offset="0.357292" stop-color="#00752F"/>
<stop offset="0.836458" stop-color="#68B900"/>
</linearGradient>
<linearGradient id="paint11_linear_546_375" x1="2723.61" y1="41.2917" x2="2723.61" y2="520.665" gradientUnits="userSpaceOnUse">
<stop offset="0.357292" stop-color="#00752F"/>
<stop offset="0.836458" stop-color="#68B900"/>
</linearGradient>
<linearGradient id="paint12_linear_546_375" x1="2723.61" y1="41.2917" x2="2723.61" y2="520.665" gradientUnits="userSpaceOnUse">
<stop offset="0.357292" stop-color="#00752F"/>
<stop offset="0.836458" stop-color="#68B900"/>
</linearGradient>
<linearGradient id="paint13_linear_546_375" x1="2723.61" y1="41.2917" x2="2723.61" y2="520.665" gradientUnits="userSpaceOnUse">
<stop offset="0.357292" stop-color="#00752F"/>
<stop offset="0.836458" stop-color="#68B900"/>
</linearGradient>
<linearGradient id="paint14_linear_546_375" x1="2723.61" y1="41.2917" x2="2723.61" y2="520.665" gradientUnits="userSpaceOnUse">
<stop offset="0.357292" stop-color="#00752F"/>
<stop offset="0.836458" stop-color="#68B900"/>
</linearGradient>
<linearGradient id="paint15_linear_546_375" x1="2723.61" y1="41.2917" x2="2723.61" y2="520.665" gradientUnits="userSpaceOnUse">
<stop offset="0.357292" stop-color="#00752F"/>
<stop offset="0.836458" stop-color="#68B900"/>
</linearGradient>
</defs>
</svg>
