<svg width="29" height="20" viewBox="0 0 29 20" fill="none" xmlns="http://www.w3.org/2000/svg">
<path d="M3.41251 0.732422H25.1122C27.1593 0.732422 28.191 1.65264 28.191 3.52428V16.6569C28.191 18.513 27.1593 19.4488 25.1122 19.4488H3.41251C1.36537 19.4488 0.333618 18.513 0.333618 16.6569V3.52428C0.333618 1.65264 1.36537 0.732422 3.41251 0.732422ZM14.2541 14.1458L25.2923 5.52069C25.6853 5.20875 25.9965 4.49129 25.5052 3.85182C25.0303 3.21234 24.1623 3.19674 23.5891 3.58667L14.2541 9.6071L4.93558 3.58667C4.36238 3.19674 3.4944 3.21234 3.01946 3.85182C2.52815 4.49129 2.83931 5.20875 3.23236 5.52069L14.2541 14.1458Z" fill="white"/>
</svg>
