<svg width="26" height="25" viewBox="0 0 26 25" fill="none" xmlns="http://www.w3.org/2000/svg">
<path d="M16.2675 7.13849L15.9647 6.86275C15.2148 6.11824 15.3446 5.77356 16.08 5.07041L20.0027 1.27892C21.1708 0.14837 21.3871 -0.389332 22.4976 0.617136L22.8004 0.89288L16.2675 7.13849ZM17.0319 7.75892L23.3773 1.69254C24.3868 2.98854 26.7519 6.47671 25.5838 9.05492C24.531 11.3574 24.0119 11.4677 22.6995 13.1911C20.0315 16.1002 16.6713 19.2161 14.0466 21.5599C12.2295 22.8146 12.1574 23.3936 9.72018 24.3174C7.12432 25.2963 3.37474 23.0903 1.96143 22.1666L8.30688 16.1002L10.0086 18.3337C10.4989 18.9679 11.7392 18.251 12.6045 17.4238C14.1043 15.9761 17.1905 13.0394 18.3731 11.8124C19.2239 10.9989 19.9883 9.81321 19.3249 9.33066L17.0319 7.75892ZM1.13941 21.6151L0.836559 21.3255C-0.144101 20.3053 0.418336 20.0847 1.58647 18.9817L5.53796 15.2316C6.27345 14.556 6.61957 14.4044 7.36948 15.0799L7.65791 15.3695L1.13941 21.6151Z" fill="white"/>
</svg>
