<svg width="46" height="29" viewBox="0 0 46 29" fill="none" xmlns="http://www.w3.org/2000/svg">
<path d="M4.9646 6.91406C4.9646 5.29948 5.64168 3.88021 6.99585 2.65625C8.37606 1.43229 9.74325 0.820312 11.0974 0.820312C13.5193 0.820312 15.3813 1.5625 16.6833 3.04688C18.0115 4.50521 18.6755 6.41927 18.6755 8.78906C18.6755 13.6328 17.1781 17.9688 14.1833 21.7969C11.1886 25.625 7.38647 27.9167 2.7771 28.6719L0.9021 25.9766C3.16772 25.2214 5.05575 24.2448 6.56616 23.0469C9.32658 20.8333 10.7068 18.5677 10.7068 16.25C10.7068 14.8177 10.1208 13.6979 8.94897 12.8906C8.37606 12.474 7.8422 12.0964 7.34741 11.7578C6.85262 11.3932 6.43595 11.0026 6.09741 10.5859C5.3422 9.7526 4.9646 8.52865 4.9646 6.91406ZM31.6833 6.91406C31.6833 5.29948 32.3604 3.88021 33.7146 2.65625C35.0948 1.43229 36.462 0.820312 37.8162 0.820312C40.238 0.820312 42.1 1.5625 43.4021 3.04688C44.7302 4.50521 45.3943 6.41927 45.3943 8.78906C45.3943 13.6328 43.8969 17.9688 40.9021 21.7969C37.9073 25.625 34.1052 27.9167 29.4958 28.6719L27.6208 25.9766C29.8865 25.2214 31.7745 24.2448 33.2849 23.0469C36.0453 20.8333 37.4255 18.5677 37.4255 16.25C37.4255 14.8177 36.8396 13.6979 35.6677 12.8906C35.0948 12.474 34.561 12.0964 34.0662 11.7578C33.5714 11.3932 33.1547 11.0026 32.8162 10.5859C32.061 9.7526 31.6833 8.52865 31.6833 6.91406Z" fill="#27392F"/>
</svg>
