<svg width="45" height="29" viewBox="0 0 45 29" fill="none" xmlns="http://www.w3.org/2000/svg">
<path d="M40.7302 22.0859C40.7302 23.7005 40.0531 25.1198 38.699 26.3438C37.3188 27.5677 35.9516 28.1797 34.5974 28.1797C32.1755 28.1797 30.3136 27.4375 29.0115 25.9531C27.6833 24.4948 27.0193 22.5807 27.0193 20.2109C27.0193 15.3672 28.5167 11.0312 31.5115 7.20312C34.5063 3.375 38.3083 1.08333 42.9177 0.328125L44.7927 3.02344C42.5271 3.77865 40.6391 4.75521 39.1287 5.95312C36.3682 8.16667 34.988 10.4323 34.988 12.75C34.988 14.1823 35.574 15.3021 36.7458 16.1094C37.3188 16.526 37.8526 16.9036 38.3474 17.2422C38.8422 17.6068 39.2589 17.9974 39.5974 18.4141C40.3526 19.2474 40.7302 20.4714 40.7302 22.0859ZM14.0115 22.0859C14.0115 23.7005 13.3344 25.1198 11.9802 26.3438C10.6 27.5677 9.23283 28.1797 7.87866 28.1797C5.45679 28.1797 3.59481 27.4375 2.29272 25.9531C0.9646 24.4948 0.300537 22.5807 0.300537 20.2109C0.300537 15.3672 1.79793 11.0312 4.79272 7.20312C7.78752 3.375 11.5896 1.08333 16.199 0.328125L18.074 3.02344C15.8083 3.77865 13.9203 4.75521 12.4099 5.95312C9.6495 8.16667 8.26929 10.4323 8.26929 12.75C8.26929 14.1823 8.85522 15.3021 10.0271 16.1094C10.6 16.526 11.1339 16.9036 11.6287 17.2422C12.1235 17.6068 12.5401 17.9974 12.8787 18.4141C13.6339 19.2474 14.0115 20.4714 14.0115 22.0859Z" fill="#27392F"/>
</svg>
